<?xml version="1.0" encoding="utf-8"?>
<!-- Generator: Adobe Illustrator 28.0.0, SVG Export Plug-In . SVG Version: 6.00 Build 0)  -->
<svg version="1.1" id="Слой_1" xmlns="http://www.w3.org/2000/svg" xmlns:xlink="http://www.w3.org/1999/xlink" x="0px" y="0px"
	 viewBox="0 0 1000 320.7000122" enable-background="new 0 0 1000 320.7000122" xml:space="preserve">
<linearGradient id="SVGID_1_" gradientUnits="userSpaceOnUse" x1="989.1149292" y1="-4.3743296" x2="157.1149445" y2="193.6256866" gradientTransform="matrix(1 0 0 -1 0 321.8648376)">
	<stop  offset="0" style="stop-color:#7D2AE7"/>
	<stop  offset="0.770833" style="stop-color:#7D2AE7"/>
	<stop  offset="1" style="stop-color:#7D2AE7;stop-opacity:0"/>
</linearGradient>
<path fill="url(#SVGID_1_)" d="M993.0499878,219.1999969c-1.7000122,0-3.25,1.1000061-4.0499878,3.4000092
	c-10.25,29.25-24.0999756,46.6499939-35.5,46.6499939c-6.5499878,0-9.2000122-7.2999878-9.2000122-18.75
	c0-28.6499939,17.1500244-89.3999939,25.7999878-117.1000061c1-3.3499908,1.6500244-6.3499908,1.6500244-8.8999939
	c0-8.0500031-4.4000244-12-15.2999878-12c-11.75,0-24.4000244,4.5999985-36.7000122,26.1499939
	c-4.25-18.9999924-17.0999756-27.2999954-35.0499878-27.2999954c-20.75,0-40.7999878,13.3499985-57.2999878,35.0000076
	s-35.9000244,28.75-50.5,25.25c10.5-25.7000122,14.3999634-44.9000092,14.3999634-59.1500092
	c0-22.3499985-11.0499878-35.8499985-28.8999634-35.8499985C735.25,76.5999985,719.5999756,102.5,719.5999756,129.75
	c0,21.0500031,9.5500488,42.6999969,30.5500488,53.1999969C732.5499878,222.75,706.8499756,258.75,697.0999756,258.75
	C684.5,258.75,680.7999878,197.1000061,681.5,153c0.4500122-25.3000031,2.5499878-26.5999985,2.5499878-34.25
	c0-4.4000015-2.8499756-7.4000015-14.2999878-7.4000015c-26.7000122,0-34.9500122,22.5999985-36.2000122,48.5499954
	c-0.3999634,9.8500061-1.9500122,19.6500092-4.5999756,29.1500092
	c-11.1500244,39.8000031-34.1500244,69.9999847-49.1500244,69.9999847c-6.9500122,0-8.8499756-6.9499817-8.8499756-16.0499878
	C570.9500122,214.3500061,587,178.5500031,587,148c0-22.4499969-9.8499756-36.6500015-28.4000244-36.6500015
	c-21.8499756,0-50.7499695,26.0000076-78.0999756,74.7000046c9-37.3000031,12.7000122-73.4000015-13.9500122-73.4000015
	C460.75,112.75,455.1000061,114.1999969,450,116.9499969c-3.5,1.6500015-5.6499939,5.25-5.3999939,9.1000061
	c2.5499878,39.6999969-32,141.4000092-64.75,141.4000092C373.8999939,267.4500122,371,261,371,250.6000061
	c0-28.7000122,17.1000061-89.3000031,25.7000122-117.0500031c1.0999756-3.6000061,1.6999817-6.7000046,1.6999817-9.4000015
	c0-7.5999985-4.6999817-11.5-15.3500061-11.5c-11.6999817,0-24.3999939,4.4499969-36.6499939,25.9999924
	c-4.2999878-18.9999924-17.1499939-27.2999954-35.1000061-27.2999954c-29.4499817,0-62.3499908,31.1500015-76.7999878,71.7500076
	c-19.3500061,54.1999969-58.3500061,106.5499878-110.8499985,106.5499878C76,289.6499939,50.8499985,250,50.8499985,187.3500061
	C50.8499985,96.9000015,117.25,23,166.5,23c23.5500031,0,34.8000031,15,34.8000031,38
	c0,27.8499985-15.5500031,40.8000031-15.5500031,51.4000015c0,3.25,2.6999969,6.4499969,8.0500031,6.4499969
	c21.3999939,0,46.5999908-25.1500015,46.5999908-59.4499969S212.5500031,0,163.3000031,0C81.9000015,0,0,81.9000015,0,186.8500061
	c0,83.5,41.2000008,133.8500061,112.4499969,133.8500061c48.6000061,0,91.0500031-37.8000183,113.9499969-81.9000092
	c2.6000061,36.5500031,19.2000122,55.6500092,44.5,55.6500092c22.5,0,40.7000122-13.4000244,54.6000061-36.9500122
	c5.3500061,24.6499939,19.5499878,36.7000122,38,36.7000122c21.1499939,0,38.8500061-13.4000244,55.7000122-38.3000183
	c-0.25,19.5500183,4.1999817,37.9500122,21.1499939,37.9500122c8,0,17.5499878-1.8500061,19.25-8.8500061
	c17.8500061-73.8000031,61.9499817-134.0500031,75.4499817-134.0500031c4,0,5.1000366,3.8500061,5.1000366,8.4000092
	C540.1500244,179.3999939,526,220.5,526,246.75c0,28.3500061,12.0499878,47.1000061,36.9500122,47.1000061
	c27.5999756,0,55.6499634-33.8000183,74.3499756-83.2000122c5.8500366,46.1499939,18.5,83.3999939,38.2999878,83.3999939
	c24.3000488,0,67.4500122-51.1499939,93.6000366-105.2999878c10.25,1.3000031,25.6499634,0.9499969,40.4500122-9.5
	c-6.3000488,15.9499969-10,33.3999939-10,50.8500061c0,50.25,24,64.3500061,44.6499634,64.3500061
	c22.4500122,0,40.6500244-13.4000244,54.6000366-36.9500122C903.5,278.75,915.25,294.1499939,936.8499756,294.1499939
	C970.6500244,294.1499939,1000,259.6000061,1000,231.25C1000,223.75,996.7999878,219.1999969,993.0499878,219.1999969z
	 M291.5,266.6000061c-13.6499939,0-19-13.75-19-34.25c0-35.6000061,24.3500061-95.0500031,50.1000061-95.0500031
	c11.25,0,15.5,13.25,15.5,29.4499969C338.1000061,202.8999939,314.9500122,266.6000061,291.5,266.6000061z M759.0499878,160.3500061
	c-8.1499634-9.7000122-11.0999756-22.9000092-11.0999756-34.6500092c0-14.5,5.2999878-26.75,11.6499634-26.75
	c6.3500366,0,8.3000488,6.25,8.3000488,14.9500046C767.9000244,128.4499969,762.7000122,149.6999969,759.0499878,160.3500061z
	 M864.9000244,266.6000061c-13.6500244,0-19-15.8000031-19-34.25c0-34.3500061,24.3499756-95.0500031,50.2999878-95.0500031
	c11.25,0,15.25,13.1499939,15.25,29.4499969C911.4500122,202.8999939,888.7000122,266.6000061,864.9000244,266.6000061z"/>
<radialGradient id="SVGID_00000111167704499518813400000011797702508303177857_" cx="-459.5613403" cy="700.9854736" r="0.5" gradientTransform="matrix(420.0004272 -432 -287.1004028 -279.1256714 394781.15625 -2511.9660645)" gradientUnits="userSpaceOnUse">
	<stop  offset="0" style="stop-color:#6420FF"/>
	<stop  offset="1" style="stop-color:#6420FF;stop-opacity:0"/>
</radialGradient>
<path fill="url(#SVGID_00000111167704499518813400000011797702508303177857_)" d="M993.0499878,219.1999969
	c-1.7000122,0-3.25,1.1000061-4.0499878,3.4000092c-10.25,29.25-24.0999756,46.6499939-35.5,46.6499939
	c-6.5499878,0-9.2000122-7.2999878-9.2000122-18.75c0-28.6499939,17.1500244-89.3999939,25.7999878-117.1000061
	c1-3.3499908,1.6500244-6.3499908,1.6500244-8.8999939c0-8.0500031-4.4000244-12-15.2999878-12
	c-11.75,0-24.4000244,4.5999985-36.7000122,26.1499939c-4.25-18.9999924-17.0999756-27.2999954-35.0499878-27.2999954
	c-20.75,0-40.7999878,13.3499985-57.2999878,35.0000076s-35.9000244,28.75-50.5,25.25
	c10.5-25.7000122,14.3999634-44.9000092,14.3999634-59.1500092c0-22.3499985-11.0499878-35.8499985-28.8999634-35.8499985
	C735.25,76.5999985,719.5999756,102.5,719.5999756,129.75c0,21.0500031,9.5500488,42.6999969,30.5500488,53.1999969
	C732.5499878,222.75,706.8499756,258.75,697.0999756,258.75C684.5,258.75,680.7999878,197.1000061,681.5,153
	c0.4500122-25.3000031,2.5499878-26.5999985,2.5499878-34.25c0-4.4000015-2.8499756-7.4000015-14.2999878-7.4000015
	c-26.7000122,0-34.9500122,22.5999985-36.2000122,48.5499954c-0.3999634,9.8500061-1.9500122,19.6500092-4.5999756,29.1500092
	c-11.1500244,39.8000031-34.1500244,69.9999847-49.1500244,69.9999847c-6.9500122,0-8.8499756-6.9499817-8.8499756-16.0499878
	C570.9500122,214.3500061,587,178.5500031,587,148c0-22.4499969-9.8499756-36.6500015-28.4000244-36.6500015
	c-21.8499756,0-50.7499695,26.0000076-78.0999756,74.7000046c9-37.3000031,12.7000122-73.4000015-13.9500122-73.4000015
	C460.75,112.75,455.1000061,114.1999969,450,116.9499969c-3.5,1.6500015-5.6499939,5.25-5.3999939,9.1000061
	c2.5499878,39.6999969-32,141.4000092-64.75,141.4000092C373.8999939,267.4500122,371,261,371,250.6000061
	c0-28.7000122,17.1000061-89.3000031,25.7000122-117.0500031c1.0999756-3.6000061,1.6999817-6.7000046,1.6999817-9.4000015
	c0-7.5999985-4.6999817-11.5-15.3500061-11.5c-11.6999817,0-24.3999939,4.4499969-36.6499939,25.9999924
	c-4.2999878-18.9999924-17.1499939-27.2999954-35.1000061-27.2999954c-29.4499817,0-62.3499908,31.1500015-76.7999878,71.7500076
	c-19.3500061,54.1999969-58.3500061,106.5499878-110.8499985,106.5499878C76,289.6499939,50.8499985,250,50.8499985,187.3500061
	C50.8499985,96.9000015,117.25,23,166.5,23c23.5500031,0,34.8000031,15,34.8000031,38
	c0,27.8499985-15.5500031,40.8000031-15.5500031,51.4000015c0,3.25,2.6999969,6.4499969,8.0500031,6.4499969
	c21.3999939,0,46.5999908-25.1500015,46.5999908-59.4499969S212.5500031,0,163.3000031,0C81.9000015,0,0,81.9000015,0,186.8500061
	c0,83.5,41.2000008,133.8500061,112.4499969,133.8500061c48.6000061,0,91.0500031-37.8000183,113.9499969-81.9000092
	c2.6000061,36.5500031,19.2000122,55.6500092,44.5,55.6500092c22.5,0,40.7000122-13.4000244,54.6000061-36.9500122
	c5.3500061,24.6499939,19.5499878,36.7000122,38,36.7000122c21.1499939,0,38.8500061-13.4000244,55.7000122-38.3000183
	c-0.25,19.5500183,4.1999817,37.9500122,21.1499939,37.9500122c8,0,17.5499878-1.8500061,19.25-8.8500061
	c17.8500061-73.8000031,61.9499817-134.0500031,75.4499817-134.0500031c4,0,5.1000366,3.8500061,5.1000366,8.4000092
	C540.1500244,179.3999939,526,220.5,526,246.75c0,28.3500061,12.0499878,47.1000061,36.9500122,47.1000061
	c27.5999756,0,55.6499634-33.8000183,74.3499756-83.2000122c5.8500366,46.1499939,18.5,83.3999939,38.2999878,83.3999939
	c24.3000488,0,67.4500122-51.1499939,93.6000366-105.2999878c10.25,1.3000031,25.6499634,0.9499969,40.4500122-9.5
	c-6.3000488,15.9499969-10,33.3999939-10,50.8500061c0,50.25,24,64.3500061,44.6499634,64.3500061
	c22.4500122,0,40.6500244-13.4000244,54.6000366-36.9500122C903.5,278.75,915.25,294.1499939,936.8499756,294.1499939
	C970.6500244,294.1499939,1000,259.6000061,1000,231.25C1000,223.75,996.7999878,219.1999969,993.0499878,219.1999969z
	 M291.5,266.6000061c-13.6499939,0-19-13.75-19-34.25c0-35.6000061,24.3500061-95.0500031,50.1000061-95.0500031
	c11.25,0,15.5,13.25,15.5,29.4499969C338.1000061,202.8999939,314.9500122,266.6000061,291.5,266.6000061z M759.0499878,160.3500061
	c-8.1499634-9.7000122-11.0999756-22.9000092-11.0999756-34.6500092c0-14.5,5.2999878-26.75,11.6499634-26.75
	c6.3500366,0,8.3000488,6.25,8.3000488,14.9500046C767.9000244,128.4499969,762.7000122,149.6999969,759.0499878,160.3500061z
	 M864.9000244,266.6000061c-13.6500244,0-19-15.8000031-19-34.25c0-34.3500061,24.3499756-95.0500031,50.2999878-95.0500031
	c11.25,0,15.25,13.1499939,15.25,29.4499969C911.4500122,202.8999939,888.7000122,266.6000061,864.9000244,266.6000061z"/>
<radialGradient id="SVGID_00000129192908473460382580000005358116242306525313_" cx="-459.0900879" cy="700.7973022" r="0.5" gradientTransform="matrix(1167.9990234 103.9999084 82.8902206 -930.9209595 478151.5625 700345.6875)" gradientUnits="userSpaceOnUse">
	<stop  offset="0.25" style="stop-color:#00C4CC"/>
	<stop  offset="1" style="stop-color:#00C4CC;stop-opacity:0"/>
</radialGradient>
<path fill="url(#SVGID_00000129192908473460382580000005358116242306525313_)" d="M993.0499878,219.1999969
	c-1.7000122,0-3.25,1.1000061-4.0499878,3.4000092c-10.25,29.25-24.0999756,46.6499939-35.5,46.6499939
	c-6.5499878,0-9.2000122-7.2999878-9.2000122-18.75c0-28.6499939,17.1500244-89.3999939,25.7999878-117.1000061
	c1-3.3499908,1.6500244-6.3499908,1.6500244-8.8999939c0-8.0500031-4.4000244-12-15.2999878-12
	c-11.75,0-24.4000244,4.5999985-36.7000122,26.1499939c-4.25-18.9999924-17.0999756-27.2999954-35.0499878-27.2999954
	c-20.75,0-40.7999878,13.3499985-57.2999878,35.0000076s-35.9000244,28.75-50.5,25.25
	c10.5-25.7000122,14.3999634-44.9000092,14.3999634-59.1500092c0-22.3499985-11.0499878-35.8499985-28.8999634-35.8499985
	C735.25,76.5999985,719.5999756,102.5,719.5999756,129.75c0,21.0500031,9.5500488,42.6999969,30.5500488,53.1999969
	C732.5499878,222.75,706.8499756,258.75,697.0999756,258.75C684.5,258.75,680.7999878,197.1000061,681.5,153
	c0.4500122-25.3000031,2.5499878-26.5999985,2.5499878-34.25c0-4.4000015-2.8499756-7.4000015-14.2999878-7.4000015
	c-26.7000122,0-34.9500122,22.5999985-36.2000122,48.5499954c-0.3999634,9.8500061-1.9500122,19.6500092-4.5999756,29.1500092
	c-11.1500244,39.8000031-34.1500244,69.9999847-49.1500244,69.9999847c-6.9500122,0-8.8499756-6.9499817-8.8499756-16.0499878
	C570.9500122,214.3500061,587,178.5500031,587,148c0-22.4499969-9.8499756-36.6500015-28.4000244-36.6500015
	c-21.8499756,0-50.7499695,26.0000076-78.0999756,74.7000046c9-37.3000031,12.7000122-73.4000015-13.9500122-73.4000015
	C460.75,112.75,455.1000061,114.1999969,450,116.9499969c-3.5,1.6500015-5.6499939,5.25-5.3999939,9.1000061
	c2.5499878,39.6999969-32,141.4000092-64.75,141.4000092C373.8999939,267.4500122,371,261,371,250.6000061
	c0-28.7000122,17.1000061-89.3000031,25.7000122-117.0500031c1.0999756-3.6000061,1.6999817-6.7000046,1.6999817-9.4000015
	c0-7.5999985-4.6999817-11.5-15.3500061-11.5c-11.6999817,0-24.3999939,4.4499969-36.6499939,25.9999924
	c-4.2999878-18.9999924-17.1499939-27.2999954-35.1000061-27.2999954c-29.4499817,0-62.3499908,31.1500015-76.7999878,71.7500076
	c-19.3500061,54.1999969-58.3500061,106.5499878-110.8499985,106.5499878C76,289.6499939,50.8499985,250,50.8499985,187.3500061
	C50.8499985,96.9000015,117.25,23,166.5,23c23.5500031,0,34.8000031,15,34.8000031,38
	c0,27.8499985-15.5500031,40.8000031-15.5500031,51.4000015c0,3.25,2.6999969,6.4499969,8.0500031,6.4499969
	c21.3999939,0,46.5999908-25.1500015,46.5999908-59.4499969S212.5500031,0,163.3000031,0C81.9000015,0,0,81.9000015,0,186.8500061
	c0,83.5,41.2000008,133.8500061,112.4499969,133.8500061c48.6000061,0,91.0500031-37.8000183,113.9499969-81.9000092
	c2.6000061,36.5500031,19.2000122,55.6500092,44.5,55.6500092c22.5,0,40.7000122-13.4000244,54.6000061-36.9500122
	c5.3500061,24.6499939,19.5499878,36.7000122,38,36.7000122c21.1499939,0,38.8500061-13.4000244,55.7000122-38.3000183
	c-0.25,19.5500183,4.1999817,37.9500122,21.1499939,37.9500122c8,0,17.5499878-1.8500061,19.25-8.8500061
	c17.8500061-73.8000031,61.9499817-134.0500031,75.4499817-134.0500031c4,0,5.1000366,3.8500061,5.1000366,8.4000092
	C540.1500244,179.3999939,526,220.5,526,246.75c0,28.3500061,12.0499878,47.1000061,36.9500122,47.1000061
	c27.5999756,0,55.6499634-33.8000183,74.3499756-83.2000122c5.8500366,46.1499939,18.5,83.3999939,38.2999878,83.3999939
	c24.3000488,0,67.4500122-51.1499939,93.6000366-105.2999878c10.25,1.3000031,25.6499634,0.9499969,40.4500122-9.5
	c-6.3000488,15.9499969-10,33.3999939-10,50.8500061c0,50.25,24,64.3500061,44.6499634,64.3500061
	c22.4500122,0,40.6500244-13.4000244,54.6000366-36.9500122C903.5,278.75,915.25,294.1499939,936.8499756,294.1499939
	C970.6500244,294.1499939,1000,259.6000061,1000,231.25C1000,223.75,996.7999878,219.1999969,993.0499878,219.1999969z
	 M291.5,266.6000061c-13.6499939,0-19-13.75-19-34.25c0-35.6000061,24.3500061-95.0500031,50.1000061-95.0500031
	c11.25,0,15.5,13.25,15.5,29.4499969C338.1000061,202.8999939,314.9500122,266.6000061,291.5,266.6000061z M759.0499878,160.3500061
	c-8.1499634-9.7000122-11.0999756-22.9000092-11.0999756-34.6500092c0-14.5,5.2999878-26.75,11.6499634-26.75
	c6.3500366,0,8.3000488,6.25,8.3000488,14.9500046C767.9000244,128.4499969,762.7000122,149.6999969,759.0499878,160.3500061z
	 M864.9000244,266.6000061c-13.6500244,0-19-15.8000031-19-34.25c0-34.3500061,24.3499756-95.0500031,50.2999878-95.0500031
	c11.25,0,15.25,13.1499939,15.25,29.4499969C911.4500122,202.8999939,888.7000122,266.6000061,864.9000244,266.6000061z"/>
<radialGradient id="SVGID_00000128463184152544282680000014292179482183090860_" cx="-459.4874268" cy="700.8044434" r="0.5" gradientTransform="matrix(588.4998779 -474.0003357 -324.1069031 -402.3981628 497970.59375 64525.71875)" gradientUnits="userSpaceOnUse">
	<stop  offset="0" style="stop-color:#6420FF"/>
	<stop  offset="1" style="stop-color:#6420FF;stop-opacity:0"/>
</radialGradient>
<path fill="url(#SVGID_00000128463184152544282680000014292179482183090860_)" d="M993.0499878,219.1999969
	c-1.7000122,0-3.25,1.1000061-4.0499878,3.4000092c-10.25,29.25-24.0999756,46.6499939-35.5,46.6499939
	c-6.5499878,0-9.2000122-7.2999878-9.2000122-18.75c0-28.6499939,17.1500244-89.3999939,25.7999878-117.1000061
	c1-3.3499908,1.6500244-6.3499908,1.6500244-8.8999939c0-8.0500031-4.4000244-12-15.2999878-12
	c-11.75,0-24.4000244,4.5999985-36.7000122,26.1499939c-4.25-18.9999924-17.0999756-27.2999954-35.0499878-27.2999954
	c-20.75,0-40.7999878,13.3499985-57.2999878,35.0000076s-35.9000244,28.75-50.5,25.25
	c10.5-25.7000122,14.3999634-44.9000092,14.3999634-59.1500092c0-22.3499985-11.0499878-35.8499985-28.8999634-35.8499985
	C735.25,76.5999985,719.5999756,102.5,719.5999756,129.75c0,21.0500031,9.5500488,42.6999969,30.5500488,53.1999969
	C732.5499878,222.75,706.8499756,258.75,697.0999756,258.75C684.5,258.75,680.7999878,197.1000061,681.5,153
	c0.4500122-25.3000031,2.5499878-26.5999985,2.5499878-34.25c0-4.4000015-2.8499756-7.4000015-14.2999878-7.4000015
	c-26.7000122,0-34.9500122,22.5999985-36.2000122,48.5499954c-0.3999634,9.8500061-1.9500122,19.6500092-4.5999756,29.1500092
	c-11.1500244,39.8000031-34.1500244,69.9999847-49.1500244,69.9999847c-6.9500122,0-8.8499756-6.9499817-8.8499756-16.0499878
	C570.9500122,214.3500061,587,178.5500031,587,148c0-22.4499969-9.8499756-36.6500015-28.4000244-36.6500015
	c-21.8499756,0-50.7499695,26.0000076-78.0999756,74.7000046c9-37.3000031,12.7000122-73.4000015-13.9500122-73.4000015
	C460.75,112.75,455.1000061,114.1999969,450,116.9499969c-3.5,1.6500015-5.6499939,5.25-5.3999939,9.1000061
	c2.5499878,39.6999969-32,141.4000092-64.75,141.4000092C373.8999939,267.4500122,371,261,371,250.6000061
	c0-28.7000122,17.1000061-89.3000031,25.7000122-117.0500031c1.0999756-3.6000061,1.6999817-6.7000046,1.6999817-9.4000015
	c0-7.5999985-4.6999817-11.5-15.3500061-11.5c-11.6999817,0-24.3999939,4.4499969-36.6499939,25.9999924
	c-4.2999878-18.9999924-17.1499939-27.2999954-35.1000061-27.2999954c-29.4499817,0-62.3499908,31.1500015-76.7999878,71.7500076
	c-19.3500061,54.1999969-58.3500061,106.5499878-110.8499985,106.5499878C76,289.6499939,50.8499985,250,50.8499985,187.3500061
	C50.8499985,96.9000015,117.25,23,166.5,23c23.5500031,0,34.8000031,15,34.8000031,38
	c0,27.8499985-15.5500031,40.8000031-15.5500031,51.4000015c0,3.25,2.6999969,6.4499969,8.0500031,6.4499969
	c21.3999939,0,46.5999908-25.1500015,46.5999908-59.4499969S212.5500031,0,163.3000031,0C81.9000015,0,0,81.9000015,0,186.8500061
	c0,83.5,41.2000008,133.8500061,112.4499969,133.8500061c48.6000061,0,91.0500031-37.8000183,113.9499969-81.9000092
	c2.6000061,36.5500031,19.2000122,55.6500092,44.5,55.6500092c22.5,0,40.7000122-13.4000244,54.6000061-36.9500122
	c5.3500061,24.6499939,19.5499878,36.7000122,38,36.7000122c21.1499939,0,38.8500061-13.4000244,55.7000122-38.3000183
	c-0.25,19.5500183,4.1999817,37.9500122,21.1499939,37.9500122c8,0,17.5499878-1.8500061,19.25-8.8500061
	c17.8500061-73.8000031,61.9499817-134.0500031,75.4499817-134.0500031c4,0,5.1000366,3.8500061,5.1000366,8.4000092
	C540.1500244,179.3999939,526,220.5,526,246.75c0,28.3500061,12.0499878,47.1000061,36.9500122,47.1000061
	c27.5999756,0,55.6499634-33.8000183,74.3499756-83.2000122c5.8500366,46.1499939,18.5,83.3999939,38.2999878,83.3999939
	c24.3000488,0,67.4500122-51.1499939,93.6000366-105.2999878c10.25,1.3000031,25.6499634,0.9499969,40.4500122-9.5
	c-6.3000488,15.9499969-10,33.3999939-10,50.8500061c0,50.25,24,64.3500061,44.6499634,64.3500061
	c22.4500122,0,40.6500244-13.4000244,54.6000366-36.9500122C903.5,278.75,915.25,294.1499939,936.8499756,294.1499939
	C970.6500244,294.1499939,1000,259.6000061,1000,231.25C1000,223.75,996.7999878,219.1999969,993.0499878,219.1999969z
	 M291.5,266.6000061c-13.6499939,0-19-13.75-19-34.25c0-35.6000061,24.3500061-95.0500031,50.1000061-95.0500031
	c11.25,0,15.5,13.25,15.5,29.4499969C338.1000061,202.8999939,314.9500122,266.6000061,291.5,266.6000061z M759.0499878,160.3500061
	c-8.1499634-9.7000122-11.0999756-22.9000092-11.0999756-34.6500092c0-14.5,5.2999878-26.75,11.6499634-26.75
	c6.3500366,0,8.3000488,6.25,8.3000488,14.9500046C767.9000244,128.4499969,762.7000122,149.6999969,759.0499878,160.3500061z
	 M864.9000244,266.6000061c-13.6500244,0-19-15.8000031-19-34.25c0-34.3500061,24.3499756-95.0500031,50.2999878-95.0500031
	c11.25,0,15.25,13.1499939,15.25,29.4499969C911.4500122,202.8999939,888.7000122,266.6000061,864.9000244,266.6000061z"/>
<radialGradient id="SVGID_00000036232838031095928120000012415464777960456349_" cx="-459.0956421" cy="700.5517578" r="0.5" gradientTransform="matrix(728.0006104 -495.9997864 -339.1491394 -497.7840271 571869.4375 121388.625)" gradientUnits="userSpaceOnUse">
	<stop  offset="0" style="stop-color:#6420FF"/>
	<stop  offset="1" style="stop-color:#6420FF;stop-opacity:0"/>
</radialGradient>
<path fill="url(#SVGID_00000036232838031095928120000012415464777960456349_)" d="M993.0499878,219.1999969
	c-1.7000122,0-3.25,1.1000061-4.0499878,3.4000092c-10.25,29.25-24.0999756,46.6499939-35.5,46.6499939
	c-6.5499878,0-9.2000122-7.2999878-9.2000122-18.75c0-28.6499939,17.1500244-89.3999939,25.7999878-117.1000061
	c1-3.3499908,1.6500244-6.3499908,1.6500244-8.8999939c0-8.0500031-4.4000244-12-15.2999878-12
	c-11.75,0-24.4000244,4.5999985-36.7000122,26.1499939c-4.25-18.9999924-17.0999756-27.2999954-35.0499878-27.2999954
	c-20.75,0-40.7999878,13.3499985-57.2999878,35.0000076s-35.9000244,28.75-50.5,25.25
	c10.5-25.7000122,14.3999634-44.9000092,14.3999634-59.1500092c0-22.3499985-11.0499878-35.8499985-28.8999634-35.8499985
	C735.25,76.5999985,719.5999756,102.5,719.5999756,129.75c0,21.0500031,9.5500488,42.6999969,30.5500488,53.1999969
	C732.5499878,222.75,706.8499756,258.75,697.0999756,258.75C684.5,258.75,680.7999878,197.1000061,681.5,153
	c0.4500122-25.3000031,2.5499878-26.5999985,2.5499878-34.25c0-4.4000015-2.8499756-7.4000015-14.2999878-7.4000015
	c-26.7000122,0-34.9500122,22.5999985-36.2000122,48.5499954c-0.3999634,9.8500061-1.9500122,19.6500092-4.5999756,29.1500092
	c-11.1500244,39.8000031-34.1500244,69.9999847-49.1500244,69.9999847c-6.9500122,0-8.8499756-6.9499817-8.8499756-16.0499878
	C570.9500122,214.3500061,587,178.5500031,587,148c0-22.4499969-9.8499756-36.6500015-28.4000244-36.6500015
	c-21.8499756,0-50.7499695,26.0000076-78.0999756,74.7000046c9-37.3000031,12.7000122-73.4000015-13.9500122-73.4000015
	C460.75,112.75,455.1000061,114.1999969,450,116.9499969c-3.5,1.6500015-5.6499939,5.25-5.3999939,9.1000061
	c2.5499878,39.6999969-32,141.4000092-64.75,141.4000092C373.8999939,267.4500122,371,261,371,250.6000061
	c0-28.7000122,17.1000061-89.3000031,25.7000122-117.0500031c1.0999756-3.6000061,1.6999817-6.7000046,1.6999817-9.4000015
	c0-7.5999985-4.6999817-11.5-15.3500061-11.5c-11.6999817,0-24.3999939,4.4499969-36.6499939,25.9999924
	c-4.2999878-18.9999924-17.1499939-27.2999954-35.1000061-27.2999954c-29.4499817,0-62.3499908,31.1500015-76.7999878,71.7500076
	c-19.3500061,54.1999969-58.3500061,106.5499878-110.8499985,106.5499878C76,289.6499939,50.8499985,250,50.8499985,187.3500061
	C50.8499985,96.9000015,117.25,23,166.5,23c23.5500031,0,34.8000031,15,34.8000031,38
	c0,27.8499985-15.5500031,40.8000031-15.5500031,51.4000015c0,3.25,2.6999969,6.4499969,8.0500031,6.4499969
	c21.3999939,0,46.5999908-25.1500015,46.5999908-59.4499969S212.5500031,0,163.3000031,0C81.9000015,0,0,81.9000015,0,186.8500061
	c0,83.5,41.2000008,133.8500061,112.4499969,133.8500061c48.6000061,0,91.0500031-37.8000183,113.9499969-81.9000092
	c2.6000061,36.5500031,19.2000122,55.6500092,44.5,55.6500092c22.5,0,40.7000122-13.4000244,54.6000061-36.9500122
	c5.3500061,24.6499939,19.5499878,36.7000122,38,36.7000122c21.1499939,0,38.8500061-13.4000244,55.7000122-38.3000183
	c-0.25,19.5500183,4.1999817,37.9500122,21.1499939,37.9500122c8,0,17.5499878-1.8500061,19.25-8.8500061
	c17.8500061-73.8000031,61.9499817-134.0500031,75.4499817-134.0500031c4,0,5.1000366,3.8500061,5.1000366,8.4000092
	C540.1500244,179.3999939,526,220.5,526,246.75c0,28.3500061,12.0499878,47.1000061,36.9500122,47.1000061
	c27.5999756,0,55.6499634-33.8000183,74.3499756-83.2000122c5.8500366,46.1499939,18.5,83.3999939,38.2999878,83.3999939
	c24.3000488,0,67.4500122-51.1499939,93.6000366-105.2999878c10.25,1.3000031,25.6499634,0.9499969,40.4500122-9.5
	c-6.3000488,15.9499969-10,33.3999939-10,50.8500061c0,50.25,24,64.3500061,44.6499634,64.3500061
	c22.4500122,0,40.6500244-13.4000244,54.6000366-36.9500122C903.5,278.75,915.25,294.1499939,936.8499756,294.1499939
	C970.6500244,294.1499939,1000,259.6000061,1000,231.25C1000,223.75,996.7999878,219.1999969,993.0499878,219.1999969z
	 M291.5,266.6000061c-13.6499939,0-19-13.75-19-34.25c0-35.6000061,24.3500061-95.0500031,50.1000061-95.0500031
	c11.25,0,15.5,13.25,15.5,29.4499969C338.1000061,202.8999939,314.9500122,266.6000061,291.5,266.6000061z M759.0499878,160.3500061
	c-8.1499634-9.7000122-11.0999756-22.9000092-11.0999756-34.6500092c0-14.5,5.2999878-26.75,11.6499634-26.75
	c6.3500366,0,8.3000488,6.25,8.3000488,14.9500046C767.9000244,128.4499969,762.7000122,149.6999969,759.0499878,160.3500061z
	 M864.9000244,266.6000061c-13.6500244,0-19-15.8000031-19-34.25c0-34.3500061,24.3499756-95.0500031,50.2999878-95.0500031
	c11.25,0,15.25,13.1499939,15.25,29.4499969C911.4500122,202.8999939,888.7000122,266.6000061,864.9000244,266.6000061z"/>
<radialGradient id="SVGID_00000102504448064020158200000009221709701202915001_" cx="-459.2253418" cy="700.8093262" r="0.5" gradientTransform="matrix(1699.9953613 375.9990234 461.1488953 -2084.9814453 457599.46875 1633872.25)" gradientUnits="userSpaceOnUse">
	<stop  offset="0" style="stop-color:#00C4CC;stop-opacity:0.725916"/>
	<stop  offset="0" style="stop-color:#00C4CC"/>
	<stop  offset="1" style="stop-color:#00C4CC;stop-opacity:0"/>
</radialGradient>
<path fill="url(#SVGID_00000102504448064020158200000009221709701202915001_)" d="M993.0499878,219.1999969
	c-1.7000122,0-3.25,1.1000061-4.0499878,3.4000092c-10.25,29.25-24.0999756,46.6499939-35.5,46.6499939
	c-6.5499878,0-9.2000122-7.2999878-9.2000122-18.75c0-28.6499939,17.1500244-89.3999939,25.7999878-117.1000061
	c1-3.3499908,1.6500244-6.3499908,1.6500244-8.8999939c0-8.0500031-4.4000244-12-15.2999878-12
	c-11.75,0-24.4000244,4.5999985-36.7000122,26.1499939c-4.25-18.9999924-17.0999756-27.2999954-35.0499878-27.2999954
	c-20.75,0-40.7999878,13.3499985-57.2999878,35.0000076s-35.9000244,28.75-50.5,25.25
	c10.5-25.7000122,14.3999634-44.9000092,14.3999634-59.1500092c0-22.3499985-11.0499878-35.8499985-28.8999634-35.8499985
	C735.25,76.5999985,719.5999756,102.5,719.5999756,129.75c0,21.0500031,9.5500488,42.6999969,30.5500488,53.1999969
	C732.5499878,222.75,706.8499756,258.75,697.0999756,258.75C684.5,258.75,680.7999878,197.1000061,681.5,153
	c0.4500122-25.3000031,2.5499878-26.5999985,2.5499878-34.25c0-4.4000015-2.8499756-7.4000015-14.2999878-7.4000015
	c-26.7000122,0-34.9500122,22.5999985-36.2000122,48.5499954c-0.3999634,9.8500061-1.9500122,19.6500092-4.5999756,29.1500092
	c-11.1500244,39.8000031-34.1500244,69.9999847-49.1500244,69.9999847c-6.9500122,0-8.8499756-6.9499817-8.8499756-16.0499878
	C570.9500122,214.3500061,587,178.5500031,587,148c0-22.4499969-9.8499756-36.6500015-28.4000244-36.6500015
	c-21.8499756,0-50.7499695,26.0000076-78.0999756,74.7000046c9-37.3000031,12.7000122-73.4000015-13.9500122-73.4000015
	C460.75,112.75,455.1000061,114.1999969,450,116.9499969c-3.5,1.6500015-5.6499939,5.25-5.3999939,9.1000061
	c2.5499878,39.6999969-32,141.4000092-64.75,141.4000092C373.8999939,267.4500122,371,261,371,250.6000061
	c0-28.7000122,17.1000061-89.3000031,25.7000122-117.0500031c1.0999756-3.6000061,1.6999817-6.7000046,1.6999817-9.4000015
	c0-7.5999985-4.6999817-11.5-15.3500061-11.5c-11.6999817,0-24.3999939,4.4499969-36.6499939,25.9999924
	c-4.2999878-18.9999924-17.1499939-27.2999954-35.1000061-27.2999954c-29.4499817,0-62.3499908,31.1500015-76.7999878,71.7500076
	c-19.3500061,54.1999969-58.3500061,106.5499878-110.8499985,106.5499878C76,289.6499939,50.8499985,250,50.8499985,187.3500061
	C50.8499985,96.9000015,117.25,23,166.5,23c23.5500031,0,34.8000031,15,34.8000031,38
	c0,27.8499985-15.5500031,40.8000031-15.5500031,51.4000015c0,3.25,2.6999969,6.4499969,8.0500031,6.4499969
	c21.3999939,0,46.5999908-25.1500015,46.5999908-59.4499969S212.5500031,0,163.3000031,0C81.9000015,0,0,81.9000015,0,186.8500061
	c0,83.5,41.2000008,133.8500061,112.4499969,133.8500061c48.6000061,0,91.0500031-37.8000183,113.9499969-81.9000092
	c2.6000061,36.5500031,19.2000122,55.6500092,44.5,55.6500092c22.5,0,40.7000122-13.4000244,54.6000061-36.9500122
	c5.3500061,24.6499939,19.5499878,36.7000122,38,36.7000122c21.1499939,0,38.8500061-13.4000244,55.7000122-38.3000183
	c-0.25,19.5500183,4.1999817,37.9500122,21.1499939,37.9500122c8,0,17.5499878-1.8500061,19.25-8.8500061
	c17.8500061-73.8000031,61.9499817-134.0500031,75.4499817-134.0500031c4,0,5.1000366,3.8500061,5.1000366,8.4000092
	C540.1500244,179.3999939,526,220.5,526,246.75c0,28.3500061,12.0499878,47.1000061,36.9500122,47.1000061
	c27.5999756,0,55.6499634-33.8000183,74.3499756-83.2000122c5.8500366,46.1499939,18.5,83.3999939,38.2999878,83.3999939
	c24.3000488,0,67.4500122-51.1499939,93.6000366-105.2999878c10.25,1.3000031,25.6499634,0.9499969,40.4500122-9.5
	c-6.3000488,15.9499969-10,33.3999939-10,50.8500061c0,50.25,24,64.3500061,44.6499634,64.3500061
	c22.4500122,0,40.6500244-13.4000244,54.6000366-36.9500122C903.5,278.75,915.25,294.1499939,936.8499756,294.1499939
	C970.6500244,294.1499939,1000,259.6000061,1000,231.25C1000,223.75,996.7999878,219.1999969,993.0499878,219.1999969z
	 M291.5,266.6000061c-13.6499939,0-19-13.75-19-34.25c0-35.6000061,24.3500061-95.0500031,50.1000061-95.0500031
	c11.25,0,15.5,13.25,15.5,29.4499969C338.1000061,202.8999939,314.9500122,266.6000061,291.5,266.6000061z M759.0499878,160.3500061
	c-8.1499634-9.7000122-11.0999756-22.9000092-11.0999756-34.6500092c0-14.5,5.2999878-26.75,11.6499634-26.75
	c6.3500366,0,8.3000488,6.25,8.3000488,14.9500046C767.9000244,128.4499969,762.7000122,149.6999969,759.0499878,160.3500061z
	 M864.9000244,266.6000061c-13.6500244,0-19-15.8000031-19-34.25c0-34.3500061,24.3499756-95.0500031,50.2999878-95.0500031
	c11.25,0,15.25,13.1499939,15.25,29.4499969C911.4500122,202.8999939,888.7000122,266.6000061,864.9000244,266.6000061z"/>
</svg>
